G04 #@! TF.GenerationSoftware,KiCad,Pcbnew,(6.0.11)*
G04 #@! TF.CreationDate,2023-05-12T09:27:08+02:00*
G04 #@! TF.ProjectId,DandaCartBase,44616e64-6143-4617-9274-426173652e6b,rev?*
G04 #@! TF.SameCoordinates,Original*
G04 #@! TF.FileFunction,Legend,Bot*
G04 #@! TF.FilePolarity,Positive*
%FSLAX46Y46*%
G04 Gerber Fmt 4.6, Leading zero omitted, Abs format (unit mm)*
G04 Created by KiCad (PCBNEW (6.0.11)) date 2023-05-12 09:27:08*
%MOMM*%
%LPD*%
G01*
G04 APERTURE LIST*
G04 Aperture macros list*
%AMRoundRect*
0 Rectangle with rounded corners*
0 $1 Rounding radius*
0 $2 $3 $4 $5 $6 $7 $8 $9 X,Y pos of 4 corners*
0 Add a 4 corners polygon primitive as box body*
4,1,4,$2,$3,$4,$5,$6,$7,$8,$9,$2,$3,0*
0 Add four circle primitives for the rounded corners*
1,1,$1+$1,$2,$3*
1,1,$1+$1,$4,$5*
1,1,$1+$1,$6,$7*
1,1,$1+$1,$8,$9*
0 Add four rect primitives between the rounded corners*
20,1,$1+$1,$2,$3,$4,$5,0*
20,1,$1+$1,$4,$5,$6,$7,0*
20,1,$1+$1,$6,$7,$8,$9,0*
20,1,$1+$1,$8,$9,$2,$3,0*%
G04 Aperture macros list end*
%ADD10O,2.700000X2.000000*%
%ADD11C,2.398980*%
%ADD12O,2.178000X5.480000*%
%ADD13RoundRect,0.200000X-0.889000X-3.810000X0.889000X-3.810000X0.889000X3.810000X-0.889000X3.810000X0*%
%ADD14C,2.400000*%
%ADD15C,2.000000*%
%ADD16RoundRect,0.200000X-0.850000X-0.850000X0.850000X-0.850000X0.850000X0.850000X-0.850000X0.850000X0*%
%ADD17O,2.100000X2.100000*%
%ADD18C,5.401260*%
%ADD19O,2.398980X1.901140*%
%ADD20RoundRect,0.200000X0.800000X-0.800000X0.800000X0.800000X-0.800000X0.800000X-0.800000X-0.800000X0*%
%ADD21O,2.000000X2.000000*%
%ADD22C,2.178000*%
G04 APERTURE END LIST*
%LPC*%
D10*
X164700000Y-84825000D03*
X164700000Y-87365000D03*
X164700000Y-89905000D03*
X164700000Y-92445000D03*
X164700000Y-94985000D03*
X164700000Y-97525000D03*
X164700000Y-100065000D03*
X164700000Y-102605000D03*
X164700000Y-105145000D03*
X172320000Y-105145000D03*
X172320000Y-102605000D03*
X172320000Y-100065000D03*
X172320000Y-97525000D03*
X172320000Y-94985000D03*
X172320000Y-92445000D03*
X172320000Y-89905000D03*
X172320000Y-87365000D03*
X172320000Y-84825000D03*
D11*
X178000000Y-99190000D03*
X178000000Y-106810000D03*
D10*
X144880000Y-80840000D03*
X144880000Y-83380000D03*
X144880000Y-85920000D03*
X144880000Y-88460000D03*
X144880000Y-91000000D03*
X144880000Y-93540000D03*
X144880000Y-96080000D03*
X144880000Y-98620000D03*
X144880000Y-101160000D03*
X144880000Y-103700000D03*
X144880000Y-106240000D03*
X144880000Y-108780000D03*
X152500000Y-108780000D03*
X152500000Y-106240000D03*
X152500000Y-103700000D03*
X152500000Y-101160000D03*
X152500000Y-98620000D03*
X152500000Y-96080000D03*
X152500000Y-93540000D03*
X152500000Y-91000000D03*
X152500000Y-88460000D03*
X152500000Y-85920000D03*
X152500000Y-83380000D03*
X152500000Y-80840000D03*
D12*
X122349000Y-117284000D03*
X124889000Y-117284000D03*
X127429000Y-117284000D03*
X129969000Y-117284000D03*
X135049000Y-117284000D03*
X137589000Y-117284000D03*
X140129000Y-117284000D03*
X142669000Y-117284000D03*
X145209000Y-117284000D03*
X147749000Y-117284000D03*
X150289000Y-117284000D03*
X152829000Y-117284000D03*
X155369000Y-117284000D03*
X157909000Y-117284000D03*
X160449000Y-117284000D03*
X162989000Y-117284000D03*
X165529000Y-117284000D03*
X168069000Y-117284000D03*
X170609000Y-117284000D03*
X173149000Y-117284000D03*
X175689000Y-117284000D03*
X178229000Y-117284000D03*
X180769000Y-117284000D03*
X183309000Y-117284000D03*
X185849000Y-117284000D03*
X188389000Y-117284000D03*
X190929000Y-117284000D03*
D13*
X122456000Y-59375000D03*
X124996000Y-59375000D03*
X127536000Y-59375000D03*
X130076000Y-59375000D03*
X135156000Y-59375000D03*
X137696000Y-59375000D03*
X140236000Y-59375000D03*
X142776000Y-59375000D03*
X145316000Y-59375000D03*
X147856000Y-59375000D03*
X150396000Y-59375000D03*
X152936000Y-59375000D03*
X155476000Y-59375000D03*
X158016000Y-59375000D03*
X160556000Y-59375000D03*
X163096000Y-59375000D03*
X165636000Y-59375000D03*
X168176000Y-59375000D03*
X170716000Y-59375000D03*
X173256000Y-59375000D03*
X175796000Y-59375000D03*
X178336000Y-59375000D03*
X180876000Y-59375000D03*
X183416000Y-59375000D03*
X185956000Y-59375000D03*
X188496000Y-59375000D03*
X191036000Y-59375000D03*
D11*
X185358923Y-103063357D03*
X185358923Y-95443357D03*
D14*
X179750000Y-89750000D03*
X179750000Y-83250000D03*
X184250000Y-83250000D03*
X184250000Y-89750000D03*
D15*
X133750000Y-79000000D03*
X136250000Y-79000000D03*
D14*
X133000000Y-83250000D03*
X133000000Y-89750000D03*
X137500000Y-83250000D03*
X137500000Y-89750000D03*
D16*
X133000000Y-97225000D03*
D17*
X133000000Y-99765000D03*
D15*
X178000000Y-96250000D03*
X178000000Y-93750000D03*
D18*
X123468000Y-95994260D03*
X123468000Y-71005740D03*
D19*
X124986920Y-77960260D03*
X124986920Y-80728860D03*
X124986920Y-83500000D03*
X124986920Y-86271140D03*
X124986920Y-89039740D03*
X121949080Y-79344560D03*
X121949080Y-82115700D03*
X121949080Y-84884300D03*
X121949080Y-87655440D03*
D16*
X138500000Y-97225000D03*
D17*
X138500000Y-99765000D03*
D20*
X181500000Y-100500000D03*
D21*
X181500000Y-92880000D03*
D22*
X185060000Y-73540000D03*
X185060000Y-68460000D03*
X182520000Y-73540000D03*
X182520000Y-68460000D03*
X179980000Y-73540000D03*
X179980000Y-68460000D03*
X177440000Y-73540000D03*
X177440000Y-68460000D03*
X172360000Y-73540000D03*
X172360000Y-68460000D03*
X169820000Y-73540000D03*
X169820000Y-68460000D03*
X167280000Y-73540000D03*
X167280000Y-68460000D03*
X164740000Y-73540000D03*
X164740000Y-68460000D03*
X162200000Y-73540000D03*
X162200000Y-68460000D03*
X159660000Y-73540000D03*
X159660000Y-68460000D03*
X157120000Y-73540000D03*
X157120000Y-68460000D03*
X154580000Y-73540000D03*
X154580000Y-68460000D03*
X152040000Y-73540000D03*
X152040000Y-68460000D03*
X149500000Y-73540000D03*
X149500000Y-68460000D03*
X146960000Y-73540000D03*
X146960000Y-68460000D03*
X144420000Y-73540000D03*
X144420000Y-68460000D03*
X141880000Y-73540000D03*
X141880000Y-68460000D03*
D15*
X158500000Y-84000000D03*
X158500000Y-81500000D03*
M02*
