M48
; DRILL file {KiCad (6.0.11)} date Fri May 12 09:27:04 2023
; FORMAT={-:-/ absolute / metric / decimal}
; #@! TF.CreationDate,2023-05-12T09:27:04+02:00
; #@! TF.GenerationSoftware,Kicad,Pcbnew,(6.0.11)
; #@! TF.FileFunction,Plated,1,2,PTH
FMAT,2
METRIC
; #@! TA.AperFunction,Plated,PTH,ViaDrill
T1C0.400
; #@! TA.AperFunction,Plated,PTH,ViaDrill
T2C0.600
; #@! TA.AperFunction,Plated,PTH,ComponentDrill
T3C0.800
; #@! TA.AperFunction,Plated,PTH,ComponentDrill
T4C0.800
; #@! TA.AperFunction,Plated,PTH,ComponentDrill
T5C0.899
; #@! TA.AperFunction,Plated,PTH,ComponentDrill
T6C1.000
; #@! TA.AperFunction,Plated,PTH,ComponentDrill
T7C1.100
; #@! TA.AperFunction,Plated,PTH,ComponentDrill
T8C3.200
%
G90
G05
T1
X113.5Y-109.5
X120.45Y-63.875
X121.0Y-112.5
X122.0Y-64.5
X123.5Y-64.5
X124.0Y-112.5
X124.5Y-64.5
X125.25Y-112.25
X125.5Y-100.0
X126.625Y-65.375
X128.0Y-68.0
X128.0Y-69.0
X128.0Y-76.5
X128.433Y-64.183
X129.5Y-65.5
X130.0Y-69.0
X130.0Y-71.0
X130.034Y-70.034
X130.5Y-66.5
X130.594Y-114.0
X131.0Y-65.5
X131.25Y-73.25
X131.5Y-76.5
X131.591Y-87.362
X132.0Y-105.0
X132.5Y-116.0
X133.0Y-112.0
X135.0Y-93.5
X135.38Y-64.5
X136.0Y-104.0
X136.95Y-64.45
X137.0Y-108.0
X138.0Y-108.0
X139.0Y-72.0
X139.5Y-64.5
X139.817Y-114.183
X140.5Y-111.5
X141.197Y-64.686
X141.75Y-114.25
X142.0Y-112.5
X142.5Y-64.5
X143.0Y-87.0
X143.237Y-107.485
X144.0Y-65.0
X144.75Y-114.25
X145.5Y-64.5
X146.0Y-114.183
X147.0Y-107.5
X147.0Y-112.624
X147.555Y-77.945
X147.711Y-84.88
X148.0Y-94.0
X148.0Y-112.624
X148.5Y-82.5
X148.808Y-114.308
X149.0Y-89.0
X149.875Y-95.0
X150.838Y-114.279
X151.75Y-79.25
X152.679Y-75.796
X153.358Y-114.259
X154.272Y-79.218
X155.0Y-80.5
X155.0Y-86.5
X156.045Y-114.23
X157.0Y-94.5
X158.5Y-89.0
X158.5Y-98.0
X158.5Y-105.5
X158.568Y-77.205
X158.75Y-114.25
X160.75Y-114.25
X161.192Y-76.308
X161.24Y-80.76
X161.24Y-105.76
X162.624Y-98.5
X162.808Y-77.192
X163.314Y-114.283
X164.15Y-70.624
X165.492Y-113.997
X166.25Y-114.25
X167.624Y-90.5
X167.869Y-75.5
X167.932Y-101.432
X168.25Y-114.25
X168.375Y-91.5
X168.4Y-110.124
X168.425Y-103.87
X169.075Y-78.0
X170.0Y-79.0
X170.0Y-80.0
X170.409Y-75.182
X170.5Y-65.0
X170.5Y-113.124
X171.0Y-70.876
X171.308Y-114.308
X172.5Y-65.0
X172.5Y-75.5
X172.93Y-70.368
X174.308Y-113.808
X174.5Y-65.0
X176.983Y-113.483
X177.0Y-65.0
X177.5Y-109.375
X178.0Y-76.5
X178.0Y-79.0
X178.0Y-103.0
X179.116Y-113.116
X179.5Y-65.0
X180.769Y-113.848
X180.876Y-64.068
X181.5Y-107.5
X182.0Y-81.5
X187.75Y-112.75
X187.753Y-64.747
X189.074Y-64.129
X189.488Y-113.488
X191.0Y-114.0
X192.374Y-78.0
X192.692Y-113.192
X192.808Y-64.692
X193.274Y-76.812
T2
X118.0Y-69.5
X127.0Y-112.5
T3
X133.75Y-79.0
X136.25Y-79.0
X144.88Y-80.84
X144.88Y-83.38
X144.88Y-85.92
X144.88Y-88.46
X144.88Y-91.0
X144.88Y-93.54
X144.88Y-96.08
X144.88Y-98.62
X144.88Y-101.16
X144.88Y-103.7
X144.88Y-106.24
X144.88Y-108.78
X152.5Y-80.84
X152.5Y-83.38
X152.5Y-85.92
X152.5Y-88.46
X152.5Y-91.0
X152.5Y-93.54
X152.5Y-96.08
X152.5Y-98.62
X152.5Y-101.16
X152.5Y-103.7
X152.5Y-106.24
X152.5Y-108.78
X158.5Y-81.5
X158.5Y-84.0
X164.7Y-84.825
X164.7Y-87.365
X164.7Y-89.905
X164.7Y-92.445
X164.7Y-94.985
X164.7Y-97.525
X164.7Y-100.065
X164.7Y-102.605
X164.7Y-105.145
X172.32Y-84.825
X172.32Y-87.365
X172.32Y-89.905
X172.32Y-92.445
X172.32Y-94.985
X172.32Y-97.525
X172.32Y-100.065
X172.32Y-102.605
X172.32Y-105.145
X178.0Y-93.75
X178.0Y-96.25
X181.5Y-92.88
X181.5Y-100.5
T4
X178.0Y-99.19
X178.0Y-106.81
X185.359Y-95.443
X185.359Y-103.063
T5
X122.198Y-79.345
X122.198Y-82.116
X122.198Y-84.884
X122.198Y-87.655
X124.738Y-77.96
X124.738Y-80.729
X124.738Y-83.5
X124.738Y-86.271
X124.738Y-89.04
T6
X133.0Y-97.225
X133.0Y-99.765
X138.5Y-97.225
X138.5Y-99.765
X141.88Y-68.46
X141.88Y-73.54
X144.42Y-68.46
X144.42Y-73.54
X146.96Y-68.46
X146.96Y-73.54
X149.5Y-68.46
X149.5Y-73.54
X152.04Y-68.46
X152.04Y-73.54
X154.58Y-68.46
X154.58Y-73.54
X157.12Y-68.46
X157.12Y-73.54
X159.66Y-68.46
X159.66Y-73.54
X162.2Y-68.46
X162.2Y-73.54
X164.74Y-68.46
X164.74Y-73.54
X167.28Y-68.46
X167.28Y-73.54
X169.82Y-68.46
X169.82Y-73.54
X172.36Y-68.46
X172.36Y-73.54
X177.44Y-68.46
X177.44Y-73.54
X179.98Y-68.46
X179.98Y-73.54
X182.52Y-68.46
X182.52Y-73.54
X185.06Y-68.46
X185.06Y-73.54
T7
X133.0Y-83.25
X133.0Y-89.75
X137.5Y-83.25
X137.5Y-89.75
X179.75Y-83.25
X179.75Y-89.75
X184.25Y-83.25
X184.25Y-89.75
T8
X123.468Y-71.006
X123.468Y-95.994
T0
M30
